{
  "accessors": [
    {
      "bufferView": 0,
      "byteOffset": 0,
      "componentType": 5123,
      "count": 74880,
      "max": [
        46591.0
      ],
      "min": [
        0.0
      ],
      "name": "buffer-0-group-0-mesh-0-indices",
      "type": "SCALAR"
    },
    {
      "bufferView": 1,
      "byteOffset": 0,
      "componentType": 5126,
      "count": 46592,
      "max": [
        3.7939510345458984,
        2.204941987991333,
        4.100241184234619
      ],
      "min": [
        -3.096817970275879,
        1.649014949798584,
        -3.777169942855835
      ],
      "name": "buffer-0-group-0-mesh-0-position",
      "type": "VEC3"
    },
    {
      "bufferView": 1,
      "byteOffset": 559104,
      "componentType": 5126,
      "count": 46592,
      "max": [
        0.9999719262123108,
        1.0,
        0.9999918937683105
      ],
      "min": [
        -0.9999719262123108,
        -1.0,
        -0.9999915957450867
      ],
      "name": "buffer-0-group-0-mesh-0-normal",
      "type": "VEC3"
    },
    {
      "bufferView": 0,
      "byteOffset": 149760,
      "componentType": 5123,
      "count": 192,
      "max": [
        127.0
      ],
      "min": [
        0.0
      ],
      "name": "buffer-0-group-1-mesh-0-indices",
      "type": "SCALAR"
    },
    {
      "bufferView": 1,
      "byteOffset": 1118208,
      "componentType": 5126,
      "count": 128,
      "max": [
        4.413599967956543,
        1.9270410537719727,
        4.413599967956543
      ],
      "min": [
        -4.41359806060791,
        0.15148699283599854,
        -4.413599967956543
      ],
      "name": "buffer-0-group-1-mesh-0-position",
      "type": "VEC3"
    },
    {
      "bufferView": 1,
      "byteOffset": 1119744,
      "componentType": 5126,
      "count": 128,
      "max": [
        0.7274880409240723,
        -0.6706640720367432,
        0.7274880409240723
      ],
      "min": [
        -0.7274880409240723,
        -0.9438883662223816,
        -0.7274880409240723
      ],
      "name": "buffer-0-group-1-mesh-0-normal",
      "type": "VEC3"
    },
    {
      "bufferView": 0,
      "byteOffset": 150144,
      "componentType": 5123,
      "count": 618,
      "max": [
        367.0
      ],
      "min": [
        0.0
      ],
      "name": "buffer-0-group-2-mesh-0-indices",
      "type": "SCALAR"
    },
    {
      "bufferView": 1,
      "byteOffset": 1121280,
      "componentType": 5126,
      "count": 368,
      "max": [
        4.672272205352783,
        2.1464359760284424,
        4.672272205352783
      ],
      "min": [
        -4.672269821166992,
        0.0,
        -4.6722731590271
      ],
      "name": "buffer-0-group-2-mesh-0-position",
      "type": "VEC3"
    },
    {
      "bufferView": 1,
      "byteOffset": 1125696,
      "componentType": 5126,
      "count": 368,
      "max": [
        0.980783998966217,
        1.0,
        0.980783998966217
      ],
      "min": [
        -0.980783998966217,
        -1.0,
        -0.980783998966217
      ],
      "name": "buffer-0-group-2-mesh-0-normal",
      "type": "VEC3"
    },
    {
      "bufferView": 0,
      "byteOffset": 151380,
      "componentType": 5123,
      "count": 96,
      "max": [
        63.0
      ],
      "min": [
        0.0
      ],
      "name": "buffer-0-group-3-mesh-0-indices",
      "type": "SCALAR"
    },
    {
      "bufferView": 1,
      "byteOffset": 1130112,
      "componentType": 5126,
      "count": 64,
      "max": [
        4.223980903625488,
        2.0336050987243652,
        4.223979949951172
      ],
      "min": [
        -4.2239789962768555,
        1.6424540281295776,
        -4.223980903625488
      ],
      "name": "buffer-0-group-3-mesh-0-position",
      "type": "VEC3"
    },
    {
      "bufferView": 1,
      "byteOffset": 1130880,
      "componentType": 5126,
      "count": 64,
      "max": [
        0.6937099695205688,
        0.7069101333618164,
        0.6937099695205688
      ],
      "min": [
        -0.6937099695205688,
        0.7068935632705688,
        -0.6937099695205688
      ],
      "name": "buffer-0-group-3-mesh-0-normal",
      "type": "VEC3"
    },
    {
      "bufferView": 0,
      "byteOffset": 151572,
      "componentType": 5123,
      "count": 42,
      "max": [
        15.0
      ],
      "min": [
        0.0
      ],
      "name": "buffer-0-group-4-mesh-0-indices",
      "type": "SCALAR"
    },
    {
      "bufferView": 1,
      "byteOffset": 1131648,
      "componentType": 5126,
      "count": 16,
      "max": [
        3.825411081314087,
        1.642454981803894,
        3.825411081314087
      ],
      "min": [
        -3.825408935546875,
        1.6424540281295776,
        -3.825411081314087
      ],
      "name": "buffer-0-group-4-mesh-0-position",
      "type": "VEC3"
    },
    {
      "bufferView": 1,
      "byteOffset": 1131840,
      "componentType": 5126,
      "count": 16,
      "max": [
        -0.0,
        1.0,
        -0.0
      ],
      "min": [
        -0.0,
        1.0,
        -0.0
      ],
      "name": "buffer-0-group-4-mesh-0-normal",
      "type": "VEC3"
    },
    {
      "bufferView": 0,
      "byteOffset": 151656,
      "componentType": 5123,
      "count": 948,
      "max": [
        639.0
      ],
      "min": [
        0.0
      ],
      "name": "buffer-0-group-5-mesh-0-indices",
      "type": "SCALAR"
    },
    {
      "bufferView": 1,
      "byteOffset": 1132032,
      "componentType": 5126,
      "count": 640,
      "max": [
        -1.8954609632492065,
        2.8042120933532715,
        1.874811053276062
      ],
      "min": [
        -3.5477890968322754,
        1.5718940496444702,
        -1.263787031173706
      ],
      "name": "buffer-0-group-5-mesh-0-position",
      "type": "VEC3"
    },
    {
      "bufferView": 1,
      "byteOffset": 1139712,
      "componentType": 5126,
      "count": 640,
      "max": [
        0.9439301490783691,
        0.9096136093139648,
        0.9972957372665405
      ],
      "min": [
        -0.9895613789558411,
        -0.9881126284599304,
        -0.9553064703941345
      ],
      "name": "buffer-0-group-5-mesh-0-normal",
      "type": "VEC3"
    },
    {
      "bufferView": 0,
      "byteOffset": 153552,
      "componentType": 5123,
      "count": 1908,
      "max": [
        1321.0
      ],
      "min": [
        0.0
      ],
      "name": "buffer-0-group-6-mesh-0-indices",
      "type": "SCALAR"
    },
    {
      "bufferView": 1,
      "byteOffset": 1147392,
      "componentType": 5126,
      "count": 1322,
      "max": [
        -1.604051947593689,
        3.139719009399414,
        2.6297409534454346
      ],
      "min": [
        -4.244952201843262,
        1.2442959547042847,
        -1.5507630109786987
      ],
      "name": "buffer-0-group-6-mesh-0-position",
      "type": "VEC3"
    },
    {
      "bufferView": 1,
      "byteOffset": 1163256,
      "componentType": 5126,
      "count": 1322,
      "max": [
        0.987420380115509,
        0.9879851937294006,
        0.9867052435874939
      ],
      "min": [
        -0.9989904761314392,
        -0.9961184859275818,
        -0.9942156672477722
      ],
      "name": "buffer-0-group-6-mesh-0-normal",
      "type": "VEC3"
    },
    {
      "bufferView": 0,
      "byteOffset": 157368,
      "componentType": 5123,
      "count": 65544,
      "max": [
        65533.0
      ],
      "min": [
        0.0
      ],
      "name": "buffer-0-group-7-mesh-0-indices",
      "type": "SCALAR"
    },
    {
      "bufferView": 1,
      "byteOffset": 1179120,
      "componentType": 5126,
      "count": 65534,
      "max": [
        3.7932090759277344,
        2.5449719429016113,
        3.222069025039673
      ],
      "min": [
        -2.611366033554077,
        0.8723250031471252,
        -3.257277011871338
      ],
      "name": "buffer-0-group-7-mesh-0-position",
      "type": "VEC3"
    },
    {
      "bufferView": 1,
      "byteOffset": 1965528,
      "componentType": 5126,
      "count": 65534,
      "max": [
        0.9997732639312744,
        0.9999250769615173,
        0.999651312828064
      ],
      "min": [
        -0.9997751712799072,
        -0.9999250769615173,
        -0.9996526837348938
      ],
      "name": "buffer-0-group-7-mesh-0-normal",
      "type": "VEC3"
    },
    {
      "bufferView": 0,
      "byteOffset": 288456,
      "componentType": 5123,
      "count": 65562,
      "max": [
        65535.0
      ],
      "min": [
        0.0
      ],
      "name": "buffer-0-group-7-mesh-1-indices",
      "type": "SCALAR"
    },
    {
      "bufferView": 1,
      "byteOffset": 2751936,
      "componentType": 5126,
      "count": 65536,
      "max": [
        3.6107800006866455,
        2.528877019882202,
        3.430604934692383
      ],
      "min": [
        -3.1258718967437744,
        1.2156089544296265,
        -3.4451539516448975
      ],
      "name": "buffer-0-group-7-mesh-1-position",
      "type": "VEC3"
    },
    {
      "bufferView": 1,
      "byteOffset": 3538368,
      "componentType": 5126,
      "count": 65536,
      "max": [
        0.9999593496322632,
        0.9999458193778992,
        0.9999211430549622
      ],
      "min": [
        -0.9999511241912842,
        -0.9999463558197021,
        -0.9999223351478577
      ],
      "name": "buffer-0-group-7-mesh-1-normal",
      "type": "VEC3"
    },
    {
      "bufferView": 0,
      "byteOffset": 419580,
      "componentType": 5123,
      "count": 65547,
      "max": [
        65533.0
      ],
      "min": [
        0.0
      ],
      "name": "buffer-0-group-7-mesh-2-indices",
      "type": "SCALAR"
    },
    {
      "bufferView": 1,
      "byteOffset": 4324800,
      "componentType": 5126,
      "count": 65534,
      "max": [
        3.7932090759277344,
        2.5449719429016113,
        3.430604934692383
      ],
      "min": [
        -3.0726330280303955,
        0.8723250031471252,
        -3.284295082092285
      ],
      "name": "buffer-0-group-7-mesh-2-position",
      "type": "VEC3"
    },
    {
      "bufferView": 1,
      "byteOffset": 5111208,
      "componentType": 5126,
      "count": 65534,
      "max": [
        0.9997732639312744,
        0.9999250769615173,
        0.9999008774757385
      ],
      "min": [
        -0.9997730851173401,
        -0.9999246001243591,
        -0.9996526837348938
      ],
      "name": "buffer-0-group-7-mesh-2-normal",
      "type": "VEC3"
    },
    {
      "bufferView": 0,
      "byteOffset": 550674,
      "componentType": 5123,
      "count": 65556,
      "max": [
        65533.0
      ],
      "min": [
        0.0
      ],
      "name": "buffer-0-group-7-mesh-3-indices",
      "type": "SCALAR"
    },
    {
      "bufferView": 1,
      "byteOffset": 5897616,
      "componentType": 5126,
      "count": 65534,
      "max": [
        3.6107800006866455,
        2.528877019882202,
        3.4252820014953613
      ],
      "min": [
        -3.1258718967437744,
        1.2156089544296265,
        -3.4451539516448975
      ],
      "name": "buffer-0-group-7-mesh-3-position",
      "type": "VEC3"
    },
    {
      "bufferView": 1,
      "byteOffset": 6684024,
      "componentType": 5126,
      "count": 65534,
      "max": [
        0.9999593496322632,
        0.9999458193778992,
        0.9999211430549622
      ],
      "min": [
        -0.9999509453773499,
        -0.9999458193778992,
        -0.9999211430549622
      ],
      "name": "buffer-0-group-7-mesh-3-normal",
      "type": "VEC3"
    },
    {
      "bufferView": 0,
      "byteOffset": 681786,
      "componentType": 5123,
      "count": 8955,
      "max": [
        8164.0
      ],
      "min": [
        0.0
      ],
      "name": "buffer-0-group-7-mesh-4-indices",
      "type": "SCALAR"
    },
    {
      "bufferView": 1,
      "byteOffset": 7470432,
      "componentType": 5126,
      "count": 8165,
      "max": [
        3.7932090759277344,
        2.4857900142669678,
        3.430604934692383
      ],
      "min": [
        -3.1258718967437744,
        0.8848450183868408,
        -3.4077670574188232
      ],
      "name": "buffer-0-group-7-mesh-4-position",
      "type": "VEC3"
    },
    {
      "bufferView": 1,
      "byteOffset": 7568412,
      "componentType": 5126,
      "count": 8165,
      "max": [
        0.9988808631896973,
        0.9975564479827881,
        0.9998999238014221
      ],
      "min": [
        -0.9991444945335388,
        -0.9954934120178223,
        -0.9998962879180908
      ],
      "name": "buffer-0-group-7-mesh-4-normal",
      "type": "VEC3"
    },
    {
      "bufferView": 0,
      "byteOffset": 699696,
      "componentType": 5123,
      "count": 360,
      "max": [
        199.0
      ],
      "min": [
        0.0
      ],
      "name": "buffer-0-group-8-mesh-0-indices",
      "type": "SCALAR"
    },
    {
      "bufferView": 1,
      "byteOffset": 7666392,
      "componentType": 5126,
      "count": 200,
      "max": [
        0.737820029258728,
        3.3531110286712646,
        6.482732772827148
      ],
      "min": [
        -1.7694799900054932,
        0.100040003657341,
        -0.5379379987716675
      ],
      "name": "buffer-0-group-8-mesh-0-position",
      "type": "VEC3"
    },
    {
      "bufferView": 1,
      "byteOffset": 7668792,
      "componentType": 5126,
      "count": 200,
      "max": [
        0.9637912511825562,
        0.909934937953949,
        0.9894047379493713
      ],
      "min": [
        -0.9644532799720764,
        -0.884349524974823,
        -0.9141225218772888
      ],
      "name": "buffer-0-group-8-mesh-0-normal",
      "type": "VEC3"
    }
  ],
  "asset": {
    "generator": "Obj2GltfConverter",
    "version": "2.0"
  },
  "bufferViews": [
    {
      "buffer": 0,
      "byteLength": 700416,
      "byteOffset": 0,
      "name": "buffer-0-bufferview-ushort",
      "target": 34963
    },
    {
      "buffer": 0,
      "byteLength": 7671192,
      "byteOffset": 700416,
      "byteStride": 12,
      "name": "buffer-0-bufferview-vec3",
      "target": 34962
    }
  ],
  "buffers": [
    {
      "byteLength": 8371608,
      "name": "buffer-0",
      "uri": "Ramen.bin"
    }
  ],
  "materials": [
    {
      "alphaMode": "OPAQUE",
      "doubleSided": true,
      "name": "Material.017",
      "pbrMetallicRoughness": {
        "baseColorFactor": [
          0.269109,
          0.501976,
          0.148357,
          1.0
        ],
        "metallicFactor": 0.0,
        "roughnessFactor": 0.7448017359246658
      }
    },
    {
      "alphaMode": "OPAQUE",
      "doubleSided": true,
      "name": "Material.010",
      "pbrMetallicRoughness": {
        "baseColorFactor": [
          0.020289,
          0.009721,
          0.011612,
          1.0
        ],
        "metallicFactor": 0.0,
        "roughnessFactor": 0.7448017359246658
      }
    },
    {
      "alphaMode": "OPAQUE",
      "doubleSided": true,
      "name": "Material.012",
      "pbrMetallicRoughness": {
        "baseColorFactor": [
          0.012805,
          0.012805,
          0.012805,
          1.0
        ],
        "metallicFactor": 0.0,
        "roughnessFactor": 0.7448017359246658
      }
    },
    {
      "alphaMode": "OPAQUE",
      "doubleSided": true,
      "name": "Material.011",
      "pbrMetallicRoughness": {
        "baseColorFactor": [
          0.472085,
          0.137473,
          0.064383,
          1.0
        ],
        "metallicFactor": 0.0,
        "roughnessFactor": 0.7448017359246658
      }
    },
    {
      "alphaMode": "OPAQUE",
      "doubleSided": true,
      "name": "Material.005",
      "pbrMetallicRoughness": {
        "baseColorFactor": [
          0.8,
          0.368632,
          0.181189,
          1.0
        ],
        "metallicFactor": 0.0,
        "roughnessFactor": 0.9362692745505611
      }
    },
    {
      "alphaMode": "OPAQUE",
      "doubleSided": true,
      "name": "Material.027",
      "pbrMetallicRoughness": {
        "baseColorFactor": [
          0.8,
          0.670927,
          0.109763,
          1.0
        ],
        "metallicFactor": 0.0,
        "roughnessFactor": 0.7448017359246658
      }
    },
    {
      "alphaMode": "OPAQUE",
      "doubleSided": true,
      "name": "Material.026",
      "pbrMetallicRoughness": {
        "baseColorFactor": [
          0.64,
          0.64,
          0.64,
          1.0
        ],
        "metallicFactor": 0.0,
        "roughnessFactor": 0.7448017359246658
      }
    },
    {
      "alphaMode": "OPAQUE",
      "doubleSided": true,
      "name": "Material.016",
      "pbrMetallicRoughness": {
        "baseColorFactor": [
          0.8,
          0.671765,
          0.342444,
          1.0
        ],
        "metallicFactor": 0.0,
        "roughnessFactor": 0.7448017359246658
      }
    },
    {
      "alphaMode": "OPAQUE",
      "doubleSided": true,
      "name": "Material.013",
      "pbrMetallicRoughness": {
        "baseColorFactor": [
          0.139982,
          0.042454,
          0.036158,
          1.0
        ],
        "metallicFactor": 0.0,
        "roughnessFactor": 0.7448017359246658
      }
    }
  ],
  "meshes": [
    {
      "name": "buffer-0-mesh-0",
      "primitives": [
        {
          "attributes": {
            "POSITION": 1,
            "NORMAL": 2
          },
          "indices": 0,
          "material": 0,
          "mode": 4
        },
        {
          "attributes": {
            "POSITION": 4,
            "NORMAL": 5
          },
          "indices": 3,
          "material": 1,
          "mode": 4
        },
        {
          "attributes": {
            "POSITION": 7,
            "NORMAL": 8
          },
          "indices": 6,
          "material": 2,
          "mode": 4
        },
        {
          "attributes": {
            "POSITION": 10,
            "NORMAL": 11
          },
          "indices": 9,
          "material": 3,
          "mode": 4
        },
        {
          "attributes": {
            "POSITION": 13,
            "NORMAL": 14
          },
          "indices": 12,
          "material": 4,
          "mode": 4
        },
        {
          "attributes": {
            "POSITION": 16,
            "NORMAL": 17
          },
          "indices": 15,
          "material": 5,
          "mode": 4
        },
        {
          "attributes": {
            "POSITION": 19,
            "NORMAL": 20
          },
          "indices": 18,
          "material": 6,
          "mode": 4
        },
        {
          "attributes": {
            "POSITION": 22,
            "NORMAL": 23
          },
          "indices": 21,
          "material": 7,
          "mode": 4
        },
        {
          "attributes": {
            "POSITION": 25,
            "NORMAL": 26
          },
          "indices": 24,
          "material": 7,
          "mode": 4
        },
        {
          "attributes": {
            "POSITION": 28,
            "NORMAL": 29
          },
          "indices": 27,
          "material": 7,
          "mode": 4
        },
        {
          "attributes": {
            "POSITION": 31,
            "NORMAL": 32
          },
          "indices": 30,
          "material": 7,
          "mode": 4
        },
        {
          "attributes": {
            "POSITION": 34,
            "NORMAL": 35
          },
          "indices": 33,
          "material": 7,
          "mode": 4
        },
        {
          "attributes": {
            "POSITION": 37,
            "NORMAL": 38
          },
          "indices": 36,
          "material": 8,
          "mode": 4
        }
      ]
    }
  ],
  "nodes": [
    {
      "mesh": 0,
      "name": "node-0"
    }
  ],
  "scenes": [
    {
      "name": "scene-0",
      "nodes": [
        0
      ]
    }
  ]
}