{
	"accessors" : 
	[
		{
			"bufferView" : 2,
			"byteOffset" : 0,
			"componentType" : 5126,
			"count" : 9628,
			"max" : 
			[
				1,
				1,
				1,
				1
			],
			"min" : 
			[
				0.006584956776350737,
				0.006584956776350737,
				0.006584956776350737,
				1
			],
			"name" : "accessor_color_m0-PolyPaper19_-25092",
			"type" : "VEC4"
		},
		{
			"bufferView" : 2,
			"byteOffset" : 154048,
			"componentType" : 5126,
			"count" : 2472,
			"max" : 
			[
				0.729918897151947,
				0.3250369727611542,
				0.05459228157997131,
				1
			],
			"min" : 
			[
				0.006584956776350737,
				0.006584956776350737,
				0.006584956776350737,
				1
			],
			"name" : "accessor_color_m1-PolyPaper23_-25094",
			"type" : "VEC4"
		},
		{
			"bufferView" : 0,
			"byteOffset" : 0,
			"componentType" : 5123,
			"count" : 14400,
			"max" : 
			[
				9627
			],
			"min" : 
			[
				0
			],
			"name" : "accessor_indices_0_m0-PolyPaper19_-25092",
			"type" : "SCALAR"
		},
		{
			"bufferView" : 0,
			"byteOffset" : 28800,
			"componentType" : 5123,
			"count" : 3660,
			"max" : 
			[
				2471
			],
			"min" : 
			[
				0
			],
			"name" : "accessor_indices_0_m1-PolyPaper23_-25094",
			"type" : "SCALAR"
		},
		{
			"bufferView" : 1,
			"byteOffset" : 115536,
			"componentType" : 5126,
			"count" : 9628,
			"max" : 
			[
				0.9985475,
				1,
				0.9999757
			],
			"min" : 
			[
				-0.9985475,
				-1,
				-0.9999757
			],
			"name" : "accessor_normal_m0-PolyPaper19_-25092",
			"type" : "VEC3"
		},
		{
			"bufferView" : 1,
			"byteOffset" : 260736,
			"componentType" : 5126,
			"count" : 2472,
			"max" : 
			[
				0.9983034,
				0.9999484,
				0.9982824
			],
			"min" : 
			[
				-0.9983034,
				-0.9999484,
				-0.9982824
			],
			"name" : "accessor_normal_m1-PolyPaper23_-25094",
			"type" : "VEC3"
		},
		{
			"bufferView" : 1,
			"byteOffset" : 0,
			"componentType" : 5126,
			"count" : 9628,
			"max" : 
			[
				0.1799683,
				1.251678,
				0.2087055
			],
			"min" : 
			[
				-0.250199,
				1.199974,
				-0.2313924
			],
			"name" : "accessor_position_m0-PolyPaper19_-25092",
			"type" : "VEC3"
		},
		{
			"bufferView" : 1,
			"byteOffset" : 231072,
			"componentType" : 5126,
			"count" : 2472,
			"max" : 
			[
				0.1868762,
				1.245183,
				0.2141667
			],
			"min" : 
			[
				-0.2635073,
				1.203877,
				-0.2362311
			],
			"name" : "accessor_position_m1-PolyPaper23_-25094",
			"type" : "VEC3"
		}
	],
	"asset" : 
	{
		"copyright" : "Unknown",
		"generator" : "glTF 1-to-2 Upgrader for Google Blocks",
		"version" : "2.0"
	},
	"bufferViews" : 
	[
		{
			"buffer" : 0,
			"byteLength" : 36120,
			"byteOffset" : 0,
			"name" : "ushortBufferView",
			"target" : 34963
		},
		{
			"buffer" : 0,
			"byteLength" : 290400,
			"byteOffset" : 36120,
			"byteStride" : 12,
			"name" : "vec3BufferView",
			"target" : 34962
		},
		{
			"buffer" : 0,
			"byteLength" : 193600,
			"byteOffset" : 326520,
			"byteStride" : 16,
			"name" : "vec4BufferView",
			"target" : 34962
		}
	],
	"buffers" : 
	[
		{
			"byteLength" : 520120,
			"name" : "model",
			"uri" : "model.bin"
		}
	],
	"materials" : 
	[
		{
			"alphaMode" : "OPAQUE",
			"doubleSided" : false,
			"name" : "BlocksPaper",
			"pbrMetallicRoughness" : 
			{
				"baseColorFactor" : 
				[
					1,
					1,
					1,
					1
				],
				"metallicFactor" : 0,
				"roughnessFactor" : 0.6
			}
		},
		{
			"alphaMode" : "BLEND",
			"doubleSided" : false,
			"name" : "BlocksGlass",
			"pbrMetallicRoughness" : 
			{
				"baseColorFactor" : 
				[
					0.2,
					0.2,
					1,
					0.3
				],
				"metallicFactor" : 1,
				"roughnessFactor" : 0.4
			}
		},
		{
			"alphaMode" : "OPAQUE",
			"doubleSided" : true,
			"name" : "BlocksGem",
			"pbrMetallicRoughness" : 
			{
				"baseColorFactor" : 
				[
					1,
					0.4,
					1,
					1
				],
				"metallicFactor" : 0,
				"roughnessFactor" : 0.1
			}
		}
	],
	"meshes" : 
	[
		{
			"name" : "mesh_m0-PolyPaper19_-25092",
			"primitives" : 
			[
				{
					"attributes" : 
					{
						"COLOR_0" : 0,
						"NORMAL" : 4,
						"POSITION" : 6
					},
					"indices" : 2,
					"material" : 0,
					"mode" : 4
				}
			]
		},
		{
			"name" : "mesh_m1-PolyPaper23_-25094",
			"primitives" : 
			[
				{
					"attributes" : 
					{
						"COLOR_0" : 1,
						"NORMAL" : 5,
						"POSITION" : 7
					},
					"indices" : 3,
					"material" : 0,
					"mode" : 4
				}
			]
		}
	],
	"nodes" : 
	[
		{
			"matrix" : 
			[
				1,
				0,
				0,
				0,
				0,
				1,
				0,
				0,
				0,
				0,
				1,
				0,
				0,
				0,
				0,
				1
			],
			"mesh" : 0,
			"name" : "node_MeshObject24700352-PolyPaper19"
		},
		{
			"matrix" : 
			[
				1,
				0,
				0,
				0,
				0,
				1,
				0,
				0,
				0,
				0,
				1,
				0,
				0,
				0,
				0,
				1
			],
			"mesh" : 1,
			"name" : "node_MeshObject543420416-PolyPaper23"
		}
	],
	"scene" : 0,
	"scenes" : 
	[
		{
			"extras" : {},
			"name" : "defaultScene",
			"nodes" : 
			[
				0,
				1
			]
		}
	]
}